<?xml version="1.0" encoding="utf-8"?>
<!-- Generator: Adobe Illustrator 22.1.0, SVG Export Plug-In . SVG Version: 6.00 Build 0)  -->
<svg version="1.1" id="Layer_1" xmlns="http://www.w3.org/2000/svg" xmlns:xlink="http://www.w3.org/1999/xlink" x="0px" y="0px"
	 viewBox="0 0 79.2 24.6" style="enable-background:new 0 0 79.2 24.6;" xml:space="preserve">
<style type="text/css">
	.st0{fill:#EA0029;}
	.st1{fill:#FFFFFF;}
</style>
<g>
	<path class="st0" d="M21,12.1c2,0,3.6-1.6,3.6-3.6c0-2-1.6-3.6-3.6-3.6c-2,0-3.6,1.6-3.6,3.6C17.4,10.5,19,12.1,21,12.1z"/>
	<path class="st0" d="M12.3,13.6c-1.4,0-2.6-0.5-3.6-1.5c-1-1-1.5-2.2-1.5-3.6c0-2-1.6-3.6-3.6-3.6C1.6,5,0,6.6,0,8.5
		c0,1,0.4,1.9,1,2.5c0.7,0.7,1.6,1,2.5,1c1.4,0,2.6,0.5,3.6,1.5c1,1,1.5,2.2,1.5,3.6c0,2,1.6,3.6,3.6,3.6c2,0,3.6-1.6,3.6-3.6
		C15.9,15.2,14.3,13.6,12.3,13.6z"/>
	<path class="st0" d="M21,13.6c-1.4,0-2.6-0.5-3.6-1.5c-1-1-1.5-2.2-1.5-3.6c0-2-1.6-3.6-3.6-3.6c-2,0-3.6,1.6-3.6,3.6
		c0,1,0.4,1.9,1,2.5c0.7,0.7,1.6,1,2.5,1c1.4,0,2.6,0.5,3.6,1.5c1,1,1.5,2.2,1.5,3.6c0,2,1.6,3.6,3.6,3.6c2,0,3.6-1.6,3.6-3.6
		C24.6,15.2,23,13.6,21,13.6z"/>
</g>
<g>
	<path class="st1" d="M34.7,20.4c-0.9,0-1.7-0.7-1.7-1.8c0-1,0.7-1.8,1.8-1.8c0.3,0,0.7,0.1,0.9,0.3l0.1-0.6c-0.3-0.1-0.7-0.2-1-0.2
		c-1.4,0-2.4,0.9-2.4,2.3c0,1.5,1,2.4,2.4,2.4c0.3,0,0.7,0,1-0.2l0-0.6C35.5,20.3,35,20.4,34.7,20.4z"/>
	<g>
		<path class="st1" d="M41.5,19c-0.1-0.3-0.2-0.4-0.4-0.5v0c0.5-0.1,0.9-0.5,0.9-1c0-1.1-0.9-1.2-1.8-1.2h-1.1v4.6h0.7v-2h0.4
			c0.3,0,0.6,0,0.8,0.4l0.7,1.6h0.7L41.5,19z M40.3,18.3h-0.6v-1.4h0.6c0.6,0,0.9,0.3,0.9,0.7C41.3,18,40.9,18.3,40.3,18.3z"/>
	</g>
	<polygon class="st1" points="45.8,20.9 48.3,20.9 48.3,20.3 46.4,20.3 46.4,18.8 48.2,18.8 48.2,18.2 46.4,18.2 46.4,16.9 
		48.3,16.9 48.3,16.3 45.8,16.3 	"/>
	<g>
		<path class="st1" d="M54.1,16.3h-0.7l-2,4.6h0.7l0.5-1.2h2.2l0.5,1.2h0.7L54.1,16.3z M52.9,19.2l0.9-2.3l0.9,2.3H52.9z"/>
	</g>
	<polygon class="st1" points="58.4,16.9 59.8,16.9 59.8,20.9 60.4,20.9 60.4,16.9 61.9,16.9 61.9,16.3 58.4,16.3 	"/>
	<rect x="65.1" y="16.3" class="st1" width="0.7" height="4.6"/>
	<polygon class="st1" points="71.2,20.3 71.2,20.3 69.8,16.3 69,16.3 70.7,20.9 71.6,20.9 73.3,16.3 72.6,16.3 	"/>
	<polygon class="st1" points="76.6,20.9 79.1,20.9 79.1,20.3 77.2,20.3 77.2,18.8 79,18.8 79,18.2 77.2,18.2 77.2,16.9 79.1,16.9 
		79.1,16.3 76.6,16.3 	"/>
</g>
<g>
	<polygon class="st1" points="43.6,5.1 40.4,5.1 38.8,12.1 38.8,12.1 37.1,5.1 33.1,5.1 31.4,12.1 31.4,12.1 29.8,5.1 26.3,5.1 
		29.3,14.8 33.2,14.8 35.1,7.8 35.1,7.8 36.7,14.8 40.6,14.8 	"/>
	<g>
		<path class="st1" d="M52.9,10.3c0-2.9-1.3-5.5-4.9-5.5c-3,0-5.2,1.9-5.2,5.1c0,3.2,2.4,5.1,5.7,5.1c1.3,0,2.5-0.2,3.6-0.6v-2.4
			c-1,0.5-2.1,0.7-3,0.7c-1.6,0-2.7-0.5-2.9-1.9h6.7V10.3z M46.1,9c0.1-1.1,0.7-2,1.9-2c1.3,0,1.9,0.9,1.9,2H46.1z"/>
	</g>
	<path class="st1" d="M60.2,12.7c-0.3,0.1-0.7,0.1-1,0.1c-1.1,0-1.3-0.6-1.3-1.8V7.5h2.4V5.1h-2.4V1.9l0,0c-1,0.7-2.1,1.2-3.3,1.5
		v1.7h-2v2.4h1.9v4c0,2.3,0.7,3.6,3.7,3.6c0.8,0,1.5-0.1,2.1-0.2L60.2,12.7z"/>
	<path class="st1" d="M63.6,7.8c0-0.5,0.8-0.7,1.6-0.7c0.8,0,1.9,0.2,2.6,0.7l0.3-2.3C67,5,65.8,4.9,64.6,4.9
		c-1.9,0-4.2,0.9-4.2,3.2c0,3.5,4.8,2.4,4.8,4c0,0.7-0.7,0.8-1.4,0.8c-1.2,0-2.4-0.3-3.2-0.7l-0.2,2.4c1,0.3,2,0.5,3.5,0.5
		c2.2,0,4.5-0.7,4.5-3.3C68.6,8.1,63.6,9.3,63.6,7.8z"/>
	<path class="st1" d="M75.8,5.1v4.1c0,2.1-0.7,3-2.1,3c-0.9,0-1.6-0.6-1.6-2.5V5.1h-3.4v6.1c0,2,1.1,3.9,3.7,3.9
		c1.5,0,2.9-0.6,3.6-2h0v1.8h3.1V5.1H75.8z"/>
</g>
</svg>
